<?xml version="1.0" encoding="UTF-8"?>
<svg id="_图层_1" data-name="图层 1" xmlns="http://www.w3.org/2000/svg" version="1.1" viewBox="0 0 16 16">
  <defs>
    <style>
      .cls-1 {
        fill: #424242;
      }

      .cls-1, .cls-2 {
        stroke-width: 0px;
      }

      .cls-2 {
        fill: #f6f6f6;
      }

      .cls-3 {
        fill: #879637;
      }
    </style>
  </defs>
  <g id="outline">
    <path class="cls-2" d="M12,5.5v-3h-7v3H1v10h15V5.5h-4Z"/>
  </g>
  <path id="icon_bg" class="cls-1" d="M6,5.5v-2h5v2h-1v-1h-3v1h-1ZM2,6.5v3h3v-1h1v1h5v-1h1v1h3v-3H2ZM12,11.5h-1v-1h-5v1h-1v-1h-3v4h13v-4h-3v1Z"/>
  <g id="wizardstar">
    <path id="outline-stars" class="cls-2" d="M7,4v-2s-3,.5-3-1.8,0-.2,0-.2h-2s0,0,0,.2c0,.9-.6,2.3-2,2.3h0s0,0,0,0v2c2.1-.3,2,2.5,2,2.5v1h2v1h4v-5h-1Z"/>
    <path class="cls-3" d="M.3,3.5h0C3.1,3.5,3,0,3,0c0,0-.2,3.5,2.7,3.5h0c-2.9,0-2.7,3.5-2.7,3.5,0,0,.2-3.5-2.7-3.5ZM5.7,8.3s0-2.1,1.6-2.1h0c-1.7,0-1.6-2.1-1.6-2.1,0,0,0,2.1-1.6,2.1h0c1.7,0,1.6,2.1,1.6,2.1Z"/>
  </g>
</svg>